<svg width="216" height="144" viewBox="0 0 216 144" fill="none" xmlns="http://www.w3.org/2000/svg">
<path fill-rule="evenodd" clip-rule="evenodd" d="M192.216 124.83L192.224 124.835C193.123 125.357 193.432 126.508 192.914 127.41L184.157 142.656C184.095 142.775 184.019 142.889 183.931 142.993C183.735 143.227 183.491 143.404 183.223 143.517L183.12 143.556L183.03 143.586L182.939 143.611L182.827 143.635L182.717 143.651L182.622 143.66L182.567 143.663L182.482 143.665L182.392 143.662L182.342 143.658L182.27 143.651L182.16 143.635L182.08 143.618L182.009 143.601L181.914 143.573L181.855 143.552C181.575 143.451 181.318 143.283 181.11 143.055C180.998 142.932 180.905 142.799 180.83 142.656L172.073 127.41C171.569 126.532 171.848 125.419 172.692 124.878L172.771 124.83C173.643 124.329 174.75 124.609 175.284 125.45L175.327 125.521L182.493 137.999L189.66 125.521C190.175 124.625 191.319 124.315 192.216 124.83ZM150.819 124.581C151.805 124.581 152.614 125.34 152.693 126.306L152.698 126.388L152.699 126.427L152.7 141.507C152.7 142.546 151.858 143.388 150.819 143.388H135.734C134.696 143.388 133.854 142.546 133.854 141.507V126.462C133.854 125.423 134.696 124.581 135.734 124.581H150.819ZM61.2998 124.581C62.3385 124.581 63.1805 125.423 63.1805 126.462C63.1805 127.501 62.3385 128.343 61.2998 128.343L48.1034 128.342V132.104L61.2998 132.104C62.2859 132.104 63.0947 132.863 63.1741 133.828L63.1789 133.911L63.1805 133.989V141.507C63.1805 142.546 62.3385 143.388 61.2998 143.388H46.215C45.1763 143.388 44.3343 142.546 44.3343 141.507C44.3343 140.469 45.1763 139.627 46.215 139.627L59.4112 139.626V135.865L46.215 135.865C45.1763 135.865 44.3343 135.023 44.3343 133.985V126.462C44.3343 125.423 45.1763 124.581 46.215 124.581H61.2998ZM83.1946 124.581C84.2333 124.581 85.0753 125.423 85.0753 126.462C85.0753 127.501 84.2333 128.343 83.1946 128.343L69.9983 128.342V139.626L83.1946 139.627C84.2333 139.627 85.0753 140.469 85.0753 141.507C85.0753 142.546 84.2333 143.388 83.1946 143.388H68.1098C67.0711 143.388 66.2291 142.546 66.2291 141.507V126.462C66.2291 125.423 67.0711 124.581 68.1098 124.581H83.1946ZM213.178 124.581C214.217 124.581 215.059 125.423 215.059 126.462C215.059 127.501 214.217 128.343 213.178 128.343L199.982 128.342V139.626L213.178 139.627C214.217 139.627 215.059 140.469 215.059 141.507C215.059 142.546 214.217 143.388 213.178 143.388H198.093C197.054 143.388 196.212 142.546 196.212 141.507V126.462C196.212 125.423 197.054 124.581 198.093 124.581H213.178ZM39.6821 124.581C40.7208 124.581 41.5628 125.423 41.5628 126.462C41.5628 127.501 40.7208 128.343 39.6821 128.343L26.4857 128.342V139.626L39.6821 139.627C40.7208 139.627 41.5628 140.469 41.5628 141.507C41.5628 142.546 40.7208 143.388 39.6821 143.388H24.5973C23.5586 143.388 22.7166 142.546 22.7166 141.507V126.462C22.7166 125.423 23.5586 124.581 24.5973 124.581H39.6821ZM104.812 124.581C105.798 124.581 106.607 125.34 106.687 126.306L106.691 126.388L106.693 126.427L106.693 141.503C106.693 142.544 105.849 143.388 104.808 143.388C103.768 143.388 102.924 142.544 102.924 141.503L102.924 128.342H91.6159L91.6161 141.503C91.6161 142.544 90.7723 143.388 89.7314 143.388C88.6906 143.388 87.8468 142.544 87.8468 141.503V126.462L87.8484 126.384C87.889 125.382 88.7148 124.581 89.7275 124.581H104.812ZM10.1832 124.581C10.4956 124.581 10.7903 124.657 11.0496 124.792L11.1347 124.839C11.2997 124.926 11.4545 125.038 11.5932 125.176L18.9059 132.467C18.9547 132.503 19.0021 132.542 19.048 132.583L19.1196 132.652C19.4886 133.022 19.6712 133.507 19.6677 133.992C19.6711 134.446 19.5108 134.901 19.1866 135.261L19.1157 135.336C19.0492 135.402 18.9791 135.463 18.9059 135.517L11.5932 142.808C11.3866 143.014 11.1442 143.162 10.8861 143.252C10.669 143.34 10.4317 143.388 10.1832 143.388H2.70245C1.66378 143.388 0.821777 142.546 0.821777 141.507V126.462C0.821777 125.423 1.66378 124.581 2.70245 124.581H10.1832ZM157.633 124.581C158.648 124.581 159.475 125.383 159.516 126.388L159.518 126.466L159.518 139.626L172.714 139.627C173.727 139.627 174.552 140.427 174.593 141.43L174.595 141.507C174.595 142.52 173.794 143.346 172.792 143.386L172.714 143.388H157.629C156.617 143.388 155.791 142.588 155.75 141.585L155.749 141.507V126.466C155.749 125.425 156.592 124.581 157.633 124.581ZM148.931 128.342H137.623V139.626H148.931V128.342ZM9.43374 128.342H4.59415V139.626H9.44814L15.1 133.992L9.43374 128.342ZM75.6562 132.104C76.6948 132.104 77.5368 132.946 77.5368 133.985C77.5368 134.997 76.7364 135.823 75.7337 135.864L75.6483 135.865C74.6096 135.865 73.7676 135.023 73.7676 133.985C73.7676 132.972 74.568 132.146 75.5708 132.106L75.6562 132.104ZM205.639 132.104C206.678 132.104 207.52 132.946 207.52 133.985C207.52 134.997 206.72 135.823 205.717 135.864L205.632 135.865C204.593 135.865 203.751 135.023 203.751 133.985C203.751 132.972 204.551 132.146 205.554 132.106L205.639 132.104ZM32.1437 132.104C33.1823 132.104 34.0243 132.946 34.0243 133.985C34.0243 134.997 33.2239 135.823 32.2212 135.864L32.1358 135.865C31.0971 135.865 30.2551 135.023 30.2551 133.985C30.2551 132.972 31.0555 132.146 32.0582 132.106L32.1437 132.104ZM120.541 143.66L120.485 143.663L120.353 143.664L120.261 143.658L120.188 143.651L120.079 143.635L119.998 143.618L119.927 143.601L119.833 143.573L119.773 143.552C119.493 143.451 119.236 143.283 119.029 143.055C118.916 142.932 118.823 142.799 118.748 142.656L109.992 127.41C109.488 126.532 109.766 125.419 110.61 124.878L110.689 124.83C111.562 124.329 112.669 124.609 113.202 125.45L113.245 125.521L120.412 137.999L127.578 125.521C128.08 124.649 129.177 124.332 130.061 124.79L130.142 124.835C131.042 125.357 131.35 126.508 130.832 127.41L122.076 142.656C122.013 142.775 121.937 142.889 121.849 142.993C121.654 143.227 121.41 143.404 121.141 143.517L121.039 143.556L120.927 143.592L120.858 143.611L120.745 143.635L120.635 143.651L120.541 143.66ZM48.9445 98.6568C50.0081 98.6568 50.8704 99.5191 50.8704 100.583V108.216C50.8704 109.253 50.0507 110.099 49.0239 110.141L48.9267 110.142L35.6387 110.142L35.6388 115.814C35.6388 116.878 34.7765 117.74 33.7129 117.74C32.6493 117.74 31.7871 116.878 31.7871 115.814V100.583C31.7871 99.5191 32.6493 98.6568 33.7129 98.6568C33.7455 98.6568 33.7779 98.6576 33.8101 98.6592L33.8578 98.6574L48.9445 98.6568ZM47.0184 102.544H35.6387V106.255H47.0184V102.544ZM71.041 98.6568C72.1046 98.6568 72.9668 99.5191 72.9668 100.583V108.216C72.9668 109.253 72.1471 110.099 71.1203 110.141L71.0231 110.142L68.6036 110.142L72.3644 113.938C73.1185 114.699 73.1185 115.925 72.3644 116.686C71.6405 117.417 70.4744 117.443 69.719 116.761L69.6409 116.686L62.5844 109.565C61.8303 108.804 61.8303 107.577 62.5844 106.816C62.9979 106.399 63.5557 106.211 64.0988 106.254L69.1149 106.255V102.544H57.7351L57.7352 115.814C57.7352 116.878 56.873 117.74 55.8094 117.74C54.7458 117.74 53.8835 116.878 53.8835 115.814V100.583C53.8835 99.5191 54.7458 98.6568 55.8094 98.6568C55.8419 98.6568 55.8743 98.6576 55.9065 98.6592L55.9542 98.6574L71.041 98.6568ZM93.6396 117.74H78.6009C78.5687 117.74 78.5368 117.739 78.505 117.738C78.4729 117.739 78.4405 117.74 78.408 117.74C77.3444 117.74 76.4821 116.878 76.4821 115.814V100.583C76.4821 99.5191 77.3444 98.6568 78.408 98.6568C78.4405 98.6568 78.4729 98.6576 78.5051 98.6592L78.5528 98.6574L93.6396 98.6568C94.7032 98.6568 95.5654 99.5191 95.5654 100.583V115.814C95.5654 116.878 94.7032 117.74 93.6396 117.74ZM91.7135 102.544H80.3337V113.853H91.7135V102.544ZM115.718 98.6568C116.792 98.6568 117.662 99.527 117.662 100.6V115.796C117.662 116.87 116.792 117.74 115.718 117.74H100.522C99.4488 117.74 98.5786 116.87 98.5786 115.796C98.5786 114.723 99.4488 113.853 100.522 113.853L113.774 113.853V102.544L110.064 102.544C108.99 102.544 108.12 101.674 108.12 100.6C108.12 99.527 108.99 98.6568 110.064 98.6568H115.718ZM159.911 98.6568C160.984 98.6568 161.855 99.527 161.855 100.6C161.855 101.674 160.984 102.544 159.911 102.544L154.257 102.544L154.257 115.796C154.257 116.87 153.387 117.74 152.313 117.74C151.24 117.74 150.369 116.87 150.369 115.796L150.369 102.544L144.715 102.544C143.642 102.544 142.771 101.674 142.771 100.6C142.771 99.527 143.642 98.6568 144.715 98.6568H159.911ZM182.025 117.74H166.987C166.954 117.74 166.922 117.739 166.891 117.738C166.859 117.739 166.826 117.74 166.794 117.74C165.73 117.74 164.868 116.878 164.868 115.814V100.583C164.868 99.5191 165.73 98.6568 166.794 98.6568C166.826 98.6568 166.859 98.6576 166.891 98.6592L166.939 98.6574L182.025 98.6568C183.089 98.6568 183.951 99.5191 183.951 100.583V115.814C183.951 116.878 183.089 117.74 182.025 117.74ZM180.099 102.544H168.719V113.853H180.099V102.544ZM137.85 98.6568C138.904 98.6568 139.758 99.5112 139.758 100.565C139.758 101.619 138.904 102.473 137.85 102.473L124.492 102.473V113.923L137.85 113.923C138.904 113.923 139.758 114.778 139.758 115.832C139.758 116.886 138.904 117.74 137.85 117.74H122.583C121.529 117.74 120.675 116.886 120.675 115.832V100.565C120.675 99.5112 121.529 98.6568 122.583 98.6568H137.85ZM130.217 106.29C131.271 106.29 132.125 107.145 132.125 108.198C132.125 109.252 131.271 110.107 130.217 110.107C129.163 110.107 128.308 109.252 128.308 108.198C128.308 107.145 129.163 106.29 130.217 106.29Z" fill="#666666"/>
<path fill-rule="evenodd" clip-rule="evenodd" d="M135.665 49.5082L135.815 49.5109L136.025 49.5237L136.152 49.5366L136.289 49.555L136.376 49.5691L136.544 49.6018L136.642 49.6241L136.763 49.6554L136.891 49.6927L137.111 49.7678L137.283 49.8362L137.448 49.9111L137.558 49.9654L137.711 50.0487L137.864 50.1398L137.946 50.1929L138.105 50.3034L138.196 50.3716L138.283 50.4408L138.402 50.5419L138.537 50.6667L138.665 50.7957L138.703 50.8355L138.791 50.9333L138.913 51.0813L138.972 51.1575L139.066 51.2865L139.124 51.3729L139.179 51.458L139.248 51.5724L139.33 51.7213C139.356 51.7693 139.38 51.818 139.404 51.8673C139.425 51.912 139.445 51.9571 139.465 52.0027C139.526 52.1424 139.579 52.286 139.624 52.4332C139.639 52.4821 139.653 52.5316 139.666 52.5815C139.708 52.7383 139.741 52.8988 139.764 53.0625L139.785 53.232L139.791 53.2961C139.797 53.378 139.802 53.4605 139.804 53.5437L139.805 53.6489V74.1723L139.804 74.2905L139.797 74.4423L139.787 74.5636L139.775 74.6763L139.761 74.7773C139.754 74.8301 139.745 74.8826 139.735 74.9349L139.716 75.0312L139.687 75.1596L139.658 75.2711C139.639 75.3418 139.617 75.4119 139.594 75.4811C139.574 75.5426 139.552 75.602 139.53 75.6604L139.463 75.8247C139.434 75.891 139.403 75.9564 139.371 76.0209L139.332 76.0964L139.252 76.2417L139.179 76.3637L139.124 76.4494C139.085 76.5086 139.044 76.5667 139.002 76.6238L138.879 76.7828L138.772 76.9095L138.696 76.9929L138.588 77.1044L138.438 77.247L138.363 77.3136L138.244 77.4119L138.174 77.4668L138.11 77.5141L138.102 77.5202C137.633 77.9985 137.041 78.3687 136.359 78.5766L136.222 78.616L110.346 85.5493C110.152 85.6013 109.204 85.8016 108.3 85.8027C107.357 85.8038 106.457 85.6035 106.254 85.5493L80.3787 78.616C79.6845 78.43 79.0791 78.0781 78.5936 77.6144L78.4901 77.5141L78.4267 77.4668L78.2883 77.3565L78.162 77.2469L78.1235 77.2118C78.0477 77.1416 77.9745 77.0686 77.9041 76.9929L77.7922 76.8678L77.6745 76.7243L77.6622 76.7085C77.6188 76.6526 77.5768 76.5955 77.5363 76.5374L77.4394 76.3919L77.3483 76.2417L77.3082 76.1709C77.281 76.1215 77.2546 76.0714 77.2293 76.0207L77.1823 75.9235L77.1135 75.768L77.1049 75.7472C77.0694 75.661 77.0367 75.5733 77.007 75.4843L76.9729 75.377L76.9311 75.2297L76.9054 75.1268C76.8904 75.0633 76.8769 74.9993 76.8649 74.9347C76.8552 74.8826 76.8465 74.8301 76.8387 74.7771L76.8206 74.6367L76.8062 74.4814L76.8014 74.4077L76.7965 74.2905L76.7949 74.1723V53.6489C76.7949 53.5775 76.7967 53.5064 76.8003 53.4359L76.8044 53.3659L76.8161 53.2271C76.8384 53.0063 76.8781 52.7906 76.9338 52.5814C76.947 52.5316 76.9612 52.4821 76.9763 52.433C77.0213 52.286 77.0744 52.1424 77.135 52.0028C77.1548 51.9571 77.1754 51.912 77.1967 51.8673L77.2327 51.7938L77.3027 51.6604L77.3765 51.5314L77.4335 51.4386L77.476 51.3728L77.5707 51.2353L77.624 51.1628L77.6786 51.0917L77.7251 51.0338L77.8097 50.9332L77.9348 50.7957L78.0422 50.6869L78.1984 50.5419L78.3176 50.4407L78.4503 50.3367L78.5838 50.2405L78.6541 50.1929L78.7475 50.1329L78.9101 50.0366L79.0423 49.9654L79.1518 49.9111L79.3177 49.8362L79.518 49.7573L79.6826 49.7012L79.8373 49.6555L79.9828 49.6184L80.1375 49.5851L80.2241 49.5691L80.3659 49.5471L80.5142 49.5294L80.6365 49.5189L80.7854 49.5109L80.9356 49.5082L81.0408 49.5095C81.0911 49.5108 81.1412 49.513 81.1911 49.516L81.3039 49.5244C81.4017 49.533 81.4985 49.545 81.5943 49.5603L81.7616 49.5906L81.8883 49.6184L82.0311 49.6547L82.1514 49.6896L82.2801 49.7314L82.4375 49.7891L82.51 49.8181L82.6904 49.8974L82.876 49.9901L82.9968 50.0569L83.1459 50.1469L83.252 50.2163L83.3492 50.2841L83.4539 50.3618L83.5507 50.4384L83.6503 50.5223L83.7887 50.6482L83.8976 50.7555L84.0426 50.9118L84.151 51.0398L84.2178 51.1242L84.344 51.2972L84.4181 51.408L84.5038 51.5469L84.5924 51.7047L84.6011 51.7213C84.6261 51.7686 84.6502 51.8166 84.6734 51.8652L84.7073 51.9378L84.7822 52.1135L84.8177 52.2054L84.8541 52.3074L84.8641 52.337C84.8906 52.4165 84.9149 52.4972 84.9367 52.579C84.9755 52.7244 85.0066 52.8732 85.0295 53.0247C85.0426 53.1116 85.0531 53.1995 85.0607 53.2882C85.0676 53.3675 85.0722 53.4474 85.0745 53.5279L85.0762 53.6489V70.8447L108.3 77.0676L131.524 70.8447V53.6489C131.524 53.5275 131.529 53.4072 131.539 53.2884C131.547 53.1995 131.558 53.1116 131.571 53.0246C131.594 52.8732 131.625 52.7244 131.664 52.5788C131.685 52.4972 131.71 52.4165 131.736 52.3369L131.756 52.2778L131.783 52.2054L131.852 52.0311L131.86 52.0115C131.882 51.9621 131.904 51.9133 131.927 51.8651L131.962 51.7927L132.046 51.6347L132.112 51.5214L132.182 51.408L132.276 51.2687L132.337 51.1847L132.382 51.1242L132.449 51.0398L132.558 50.9117L132.682 50.7763L132.811 50.6482L132.853 50.6092L132.95 50.5223L133.079 50.4148L133.195 50.3247L133.302 50.2479L133.423 50.1668L133.508 50.1136L133.642 50.0352L133.781 49.9607L133.883 49.9101L134.018 49.8484L134.09 49.8181L134.222 49.7666L134.374 49.7134L134.483 49.6792L134.662 49.6305L134.811 49.5963L134.863 49.5857C135.005 49.5579 135.15 49.5373 135.296 49.5244L135.409 49.516C135.459 49.513 135.509 49.5108 135.559 49.5095L135.665 49.5082ZM101.592 58.6906L101.608 58.6898H114.992L115.008 58.6906L115.059 58.6898L115.111 58.6907C115.928 58.7183 116.581 59.3903 116.581 60.2153C116.581 60.3979 116.549 60.5731 116.491 60.7354C115.582 64.3197 112.34 66.9711 108.48 66.9711L108.3 66.9692L108.12 66.9711C104.26 66.9711 101.019 64.3197 100.11 60.7354C100.051 60.5731 100.019 60.3979 100.019 60.2153C100.019 59.3903 100.672 58.7183 101.489 58.6907L101.541 58.6898C101.558 58.6898 101.575 58.69 101.592 58.6906ZM120.182 42.127C123.264 42.127 125.763 44.6257 125.763 47.7079C125.763 50.7902 123.264 53.2889 120.182 53.2889C117.1 53.2889 114.601 50.7902 114.601 47.7079C114.601 44.6257 117.1 42.127 120.182 42.127ZM96.7782 42.127C99.8604 42.127 102.359 44.6257 102.359 47.7079C102.359 50.7902 99.8604 53.2889 96.7782 53.2889C93.6959 53.2889 91.1973 50.7902 91.1973 47.7079C91.1973 44.6257 93.6959 42.127 96.7782 42.127ZM108.3 0L108.419 0.00107164C111.944 0.0645654 114.781 2.94145 114.781 6.48108C114.781 7.51919 114.537 8.5003 114.103 9.37014C113.839 9.89975 113.505 10.388 113.112 10.8228L113.027 10.915C112.913 11.037 112.793 11.1546 112.67 11.2675L112.576 11.3514C112.45 11.4619 112.32 11.5676 112.186 11.6682L112.085 11.7426L111.999 11.8036L111.878 11.8859L111.773 11.9544L111.687 12.0078L111.601 12.0599C111.571 12.0778 111.54 12.0955 111.51 12.1129C111.343 12.2083 111.171 12.2965 110.995 12.3771L110.878 12.429L110.811 12.4579C110.702 12.5036 110.592 12.5464 110.481 12.5862L110.401 12.614L110.281 12.654L110.28 18.8956L136.687 25.9716C138.328 26.4114 139.474 27.7784 139.71 29.3579C139.721 29.4097 139.732 29.4618 139.741 29.5143C139.766 29.6525 139.783 29.793 139.794 29.9356L139.803 30.1074L139.805 30.176V42.127L139.804 42.2322C139.798 42.4871 139.768 42.7363 139.718 42.9778C139.698 43.0712 139.676 43.1637 139.65 43.2548C139.6 43.4329 139.538 43.6059 139.465 43.7731C139.445 43.8188 139.425 43.864 139.404 43.9086L139.37 43.9774L139.294 44.1222L139.23 44.2339L139.167 44.3373L139.124 44.4031L139.029 44.5407L138.979 44.6089L138.875 44.7422L138.79 44.8427L138.665 44.9802L138.559 45.0878L138.416 45.2213L138.283 45.3352L138.183 45.414L138.016 45.5355L137.946 45.583L137.853 45.643L137.69 45.7394L137.558 45.8105L137.448 45.8649L137.335 45.917L137.197 45.9748L137.087 46.0171L136.919 46.0742L136.791 46.1126L136.617 46.1576L136.463 46.1909L136.376 46.2068L136.234 46.2288L136.086 46.2465L135.964 46.2571L135.815 46.265L135.665 46.2677L135.559 46.2664L135.409 46.2599L135.296 46.2515C135.199 46.2429 135.102 46.2309 135.006 46.2156L134.839 46.1853L134.712 46.1575L134.569 46.1212L134.449 46.0863L134.32 46.0445L134.163 45.9869L134.09 45.9579L133.91 45.8785L133.724 45.7858L133.584 45.7077L133.454 45.629L133.348 45.5596L133.251 45.4918L133.146 45.4141L133.049 45.3375L132.949 45.2528L132.811 45.1271L132.703 45.0204L132.558 44.8641L132.442 44.7267L132.378 44.6465L132.256 44.4788L132.182 44.3679L132.092 44.2215L132.006 44.0678L131.995 44.0478C131.972 44.0027 131.949 43.957 131.927 43.9107C131.904 43.8626 131.882 43.8139 131.86 43.7646L131.834 43.7009L131.808 43.6367C131.79 43.5908 131.773 43.5446 131.756 43.498C131.74 43.4501 131.724 43.4017 131.708 43.3529C131.67 43.2302 131.638 43.105 131.611 42.9776C131.566 42.758 131.537 42.532 131.528 42.3011L131.524 42.127V33.5288L108.3 27.3062L85.0762 33.5288V42.127C85.0762 42.4186 85.0461 42.7031 84.9888 42.9776C84.9622 43.105 84.9297 43.2302 84.8917 43.353C84.8767 43.4017 84.8607 43.4501 84.8438 43.4981L84.8188 43.5676L84.7667 43.7008L84.7399 43.7645C84.7186 43.8139 84.6964 43.8626 84.6734 43.9108L84.6396 43.9797L84.5598 44.1311L84.4886 44.2546L84.418 44.3679L84.3242 44.5072L84.2688 44.584L84.2217 44.6466L84.1437 44.7451L84.0426 44.8642L83.9178 44.9996L83.7895 45.1271L83.749 45.1651L83.6512 45.2529L83.4845 45.3904L83.3772 45.4716L83.252 45.5596L83.1161 45.6477L83.0425 45.6923L82.8983 45.7739L82.778 45.8362L82.6314 45.9056L82.5818 45.9275L82.51 45.9578L82.3785 46.0093L82.2264 46.0625L82.1169 46.0967L81.9384 46.1454L81.7891 46.1796L81.7368 46.1902C81.5951 46.218 81.4506 46.2386 81.3038 46.2515L81.147 46.2624L81.0408 46.2664L80.9356 46.2677L80.7854 46.265L80.575 46.2522L80.4486 46.2394L80.3112 46.2209L80.2241 46.2068L80.056 46.1741L79.9587 46.1518L79.8373 46.1205L79.6808 46.0742L79.4895 46.0082L79.3177 45.9397L79.1518 45.8648L79.0423 45.8105L78.8888 45.7273L78.7365 45.6362L78.6541 45.583L78.4952 45.4725L78.4045 45.4043L78.3175 45.3351L78.1696 45.2084L78.0409 45.0878L77.9348 44.9802L77.8975 44.9404L77.8097 44.8427L77.6721 44.6759L77.6208 44.6089L77.5345 44.4895L77.476 44.4031L77.4002 44.2838L77.3218 44.15L77.2651 44.0453C77.2415 44.0003 77.2187 43.9547 77.1967 43.9086C77.1754 43.864 77.1548 43.8188 77.1351 43.7733C77.0624 43.6059 77.0006 43.4329 76.9504 43.255C76.9246 43.1637 76.9019 43.0712 76.8823 42.9776C76.8319 42.7363 76.8025 42.4871 76.7962 42.2322L76.7949 42.127V30.1751L76.7981 30.079C76.8057 29.887 76.8263 29.6986 76.8591 29.5143L76.8762 29.4245L76.8902 29.3579C77.1214 27.8135 78.2213 26.4723 79.8043 26.0023L79.913 25.9716L106.32 18.8956L106.32 12.654L106.279 12.6408C106.226 12.6233 106.172 12.6051 106.12 12.5862C106.008 12.5464 105.898 12.5036 105.789 12.4579L105.722 12.429L105.605 12.3771C105.429 12.2965 105.258 12.2083 105.091 12.1129L104.999 12.0599C104.942 12.0256 104.884 11.9904 104.828 11.9544L104.688 11.8633C104.63 11.824 104.572 11.7837 104.515 11.7426L104.414 11.6682C104.28 11.5676 104.15 11.4619 104.024 11.3514L103.93 11.2675C103.807 11.1546 103.688 11.037 103.573 10.915L103.488 10.8228C103.096 10.388 102.761 9.89975 102.497 9.37026C102.063 8.5003 101.819 7.51919 101.819 6.48108C101.819 2.90168 104.721 0 108.3 0ZM147.187 41.5869L147.292 41.5882C149.494 41.6432 151.27 43.4182 151.326 45.6207L151.327 45.7276V49.6883C151.327 51.9399 149.53 53.7718 147.292 53.8276L147.187 53.829C144.9 53.829 143.046 51.9751 143.046 49.6883V45.7276C143.046 43.4408 144.9 41.5869 147.187 41.5869ZM69.4136 53.829C67.1268 53.829 65.2729 51.9751 65.2729 49.6883V45.7276C65.2729 43.4408 67.1268 41.5869 69.4136 41.5869L69.5189 41.5882C71.7216 41.6432 73.4972 43.4182 73.553 45.6207L73.5543 45.7276V49.6883C73.5543 51.9399 71.7571 53.7718 69.5189 53.8276L69.4136 53.829Z" fill="url(#paint0_radial_0_1)"/>
<defs>
<radialGradient id="paint0_radial_0_1" cx="0" cy="0" r="1" gradientUnits="userSpaceOnUse" gradientTransform="translate(108.3 42.9014) rotate(155.85) scale(47.1543 47.0627)">
<stop stop-color="#0094FF"/>
<stop offset="1" stop-color="#FF00FE"/>
</radialGradient>
</defs>
</svg>